<?xml version="1.0" ?><svg width="64px" height="64px" viewBox="0 0 64 64" xmlns="http://www.w3.org/2000/svg"><g id="a"/><g id="b"/><g id="c"/><g id="d"/><g id="e"/><g id="f"/><g id="g"/><g id="h"/><g id="i"/><g id="j"/><g id="k"/><g id="l"/><g id="m"/><g id="n"/><g id="o"/><g id="p"/><g id="q"/><g id="r"/><g id="s"/><g id="t"/><g id="u"/><g id="v"/><g id="w"/><g id="x"/><g id="y"/><g id="a`"/><g id="aa"/><g id="ab"/><g id="ac"/><g id="ad"/><g id="ae"/><g id="af"/><g id="ag"/><g id="ah"/><g id="ai"/><g id="aj"/><g id="ak"/><g id="al"/><g id="am"><path d="M57.13,42.78c-4.63-10.07-9.17-20.1-14.56-32.06-.38-.85-1.32-1.5-2.26-1.61l-.61-2.03c-.3-1.02-1.14-1.79-2.17-2.01l-4.21-.92c-.86-.19-1.77-.19-2.64,0l-4.21,.92c-1.04,.23-1.87,1-2.17,2.01l-.61,2.03c-.94,.1-1.88,.76-2.26,1.61-4.24,9.46-8.62,19.05-12.86,28.33l-1.71,3.73c-.21,.47-.27,1.02-.16,1.57,.11,.54,.38,1.03,.76,1.38l15.18,13.85c.44,.4,1.06,.53,1.61,.34,.56-.19,.98-.66,1.09-1.24l.99-5.11,4.17,2.54c.92,.56,2.05,.56,2.97,0l4.17-2.54,.99,5.11c.11,.58,.53,1.06,1.09,1.24,.17,.06,.34,.08,.51,.08,.4,0,.8-.15,1.1-.43l15.18-13.85c.78-.71,1.04-1.98,.6-2.94Zm-28.49-1.55l1.08-5.81h4.56l1.08,5.81h-6.72Zm7.09,2l.71,3.85h-8.89l.71-3.85h7.46Zm-2.53-13.66l.71,3.85h-3.82l.71-3.85h2.39Zm-2.02-2l.83-4.45,.82,4.45h-1.65Zm2.03-8.93h10.74c3.63,8.05,6.95,15.35,10.26,22.56l-19.71-15.6-1.29-6.96Zm-6.31-11.62l4.21-.92c.58-.13,1.2-.13,1.78,0l4.21,.92c.33,.07,.59,.31,.68,.63l.43,1.44h-12.44l.43-1.44c.1-.32,.36-.56,.68-.63Zm-3.64,4.52c.09-.21,.45-.44,.68-.44h16.12c.23,0,.59,.23,.68,.44,.8,1.77,1.54,3.41,2.3,5.1H20.95c.77-1.7,1.55-3.41,2.31-5.1Zm-3.21,7.1h10.75l-1.29,6.96-19.73,15.61,.61-1.34c3.18-6.96,6.43-14.1,9.66-21.24Zm3.47,39.02l-14.54-13.26,19.98-15.81-5.44,29.06Zm8.93-3.26c-.27,.17-.62,.17-.89,0l-4.81-2.93,.44-2.39h9.63l.44,2.39-4.81,2.93Zm8.04,3.26l-5.43-29.06,19.97,15.8-14.54,13.26Z"/></g><g id="an"/><g id="ao"/><g id="ap"/><g id="aq"/><g id="ar"/><g id="as"/><g id="at"/><g id="au"/><g id="av"/><g id="aw"/><g id="ax"/></svg>