<?xml version="1.0" ?><svg width="64px" height="64px" viewBox="0 0 64 64" xmlns="http://www.w3.org/2000/svg"><g id="a"/><g id="b"/><g id="c"/><g id="d"/><g id="e"/><g id="f"/><g id="g"/><g id="h"/><g id="i"/><g id="j"/><g id="k"/><g id="l"/><g id="m"/><g id="n"/><g id="o"/><g id="p"/><g id="q"/><g id="r"/><g id="s"/><g id="t"/><g id="u"/><g id="v"/><g id="w"/><g id="x"/><g id="y"/><g id="a`"/><g id="aa"/><g id="ab"/><g id="ac"/><g id="ad"/><g id="ae"/><g id="af"/><g id="ag"/><g id="ah"/><g id="ai"/><g id="aj"/><g id="ak"/><g id="al"/><g id="am"/><g id="an"/><g id="ao"/><g id="ap"/><g id="aq"/><g id="ar"><path d="M57.13,42.78c-5.14-11.17-10.21-22.41-14.56-32.07-.38-.85-1.32-1.5-2.26-1.6l-.61-2.03c-.3-1.02-1.14-1.79-2.17-2.01l-4.21-.92c-.86-.19-1.77-.19-2.64,0l-4.21,.92c-1.04,.23-1.87,1-2.17,2.01l-.61,2.03c-.94,.1-1.88,.76-2.26,1.61-4.24,9.47-8.63,19.06-12.87,28.34l-1.7,3.72c-.44,.96-.18,2.23,.6,2.94l15.18,13.85c.32,.29,.74,.45,1.18,.43,.44-.02,.84-.21,1.13-.53,.2-.22,.34-.49,.4-.79l.99-5.11,4.17,2.54c.92,.56,2.05,.56,2.97,0l4.17-2.54,.99,5.11c.15,.78,.84,1.32,1.6,1.32,.1,0,.21,0,.31-.03,.3-.06,.57-.19,.79-.4l15.18-13.85c.78-.71,1.04-1.98,.6-2.94Zm-9.91-16.91c2.35,5.19,4.79,10.55,7.27,15.94l-18-10.33,10.74-5.61Zm-13.07,4.57h-1.15v-4.34l11.58-6.05c.59,1.31,1.2,2.66,1.81,4l-12.24,6.39Zm5.91-19.34c.23,0,.59,.23,.68,.44,.97,2.15,1.98,4.4,3.01,6.68l-10.76,5.62V11.1h7.06Zm-13.17-4.08l4.21-.92c.58-.13,1.2-.13,1.78,0l4.21,.92c.33,.07,.59,.31,.68,.63l.43,1.44h-12.44l.43-1.44c.1-.32,.36-.56,.68-.63Zm-3.64,4.52c.09-.21,.45-.44,.68-.44h7.06v12.74l-10.76-5.62c1.01-2.23,2.02-4.46,3.02-6.68Zm7.74,14.56v4.34h-1.15l-12.24-6.39c.61-1.33,1.2-2.66,1.81-4l11.59,6.05Zm-14.22-.23l10.74,5.61-18.01,10.33,.88-1.92c2.11-4.61,4.25-9.31,6.4-14.03Zm6.73,31.79l-14.52-13.25,19.21-11.02-4.69,24.27Zm8.93-3.26c-.27,.17-.62,.17-.89,0l-4.81-2.92,3.68-19.04h3.15l3.68,19.04-4.81,2.92Zm8.04,3.26l-4.69-24.27,19.21,11.02-14.52,13.25Z"/></g><g id="as"/><g id="at"/><g id="au"/><g id="av"/><g id="aw"/><g id="ax"/></svg>