<?xml version="1.0" ?><svg width="64px" height="64px" viewBox="0 0 64 64" xmlns="http://www.w3.org/2000/svg"><g id="a"/><g id="b"/><g id="c"/><g id="d"/><g id="e"/><g id="f"/><g id="g"/><g id="h"/><g id="i"/><g id="j"><path d="M57.4,4.44l-7.28-.43c-1.02-.06-2.02,.32-2.74,1.04L22.57,29.86l-1.47-1.47,4.33-4.33c.56-.57,.56-1.49,0-2.05-.29-.29-.67-.45-1.08-.43l-8.99,.32c-1.18,.04-2.12,1-2.15,2.17l-.3,12.19-1.82,1.82c-.84,.84-.84,2.21,0,3.05l1.83,1.83-8.29,8.29c-.84,.84-.84,2.21,0,3.05l5.07,5.07c.42,.42,.97,.63,1.52,.63s1.1-.21,1.52-.63l8.29-8.29,1.83,1.83c.41,.41,.95,.63,1.52,.63h0c.58,0,1.12-.22,1.52-.63l1.82-1.82,12.19-.3c1.18-.03,2.13-.97,2.17-2.15l.32-8.99c.03-.8-.6-1.48-1.41-1.51-.4,0-.79,.14-1.08,.43l-4.33,4.33-1.47-1.47,24.81-24.81c.72-.72,1.1-1.72,1.04-2.74l-.43-7.28c-.07-1.16-1-2.09-2.16-2.16Zm-8.6,2.02c.32-.32,.75-.49,1.2-.46l6.21,.37-28.57,28.57-3.66-3.66L48.8,6.46Zm-23.51,28.95l-10.36,.25,.26-10.36,10.11,10.11Zm-5.6-8.43l-3.12-3.12,6.47-.23-3.35,3.35Zm-5.36,17.4l1.94,1.94-4.98,4.98-4.17,.29,7.21-7.21Zm-7.55,9.24l3.88-.27-.27,3.88-3.6-3.6Zm5.63,3.26l.29-4.17,4.98-4.98,1.94,1.94-7.21,7.21Zm12.09-5.38s-.08,.05-.11,.05-.07,0-.11-.05l-11.77-11.77c-.06-.06-.06-.16,0-.22l1.82-1.82,12.3-.3-.3,12.3-1.82,1.82Zm15.87-10.53l-.23,6.47-3.12-3.12,3.35-3.35Zm-1.67,7.86l-10.36,.25,.25-10.36,10.11,10.11ZM57.54,15.2l-24.81,24.81-3.66-3.66L57.63,7.79l.37,6.21c.03,.45-.14,.89-.46,1.2Z"/></g><g id="k"/><g id="l"/><g id="m"/><g id="n"/><g id="o"/><g id="p"/><g id="q"/><g id="r"/><g id="s"/><g id="t"/><g id="u"/><g id="v"/><g id="w"/><g id="x"/><g id="y"/><g id="a`"/><g id="aa"/><g id="ab"/><g id="ac"/><g id="ad"/><g id="ae"/><g id="af"/><g id="ag"/><g id="ah"/><g id="ai"/><g id="aj"/><g id="ak"/><g id="al"/><g id="am"/><g id="an"/><g id="ao"/><g id="ap"/><g id="aq"/><g id="ar"/><g id="as"/><g id="at"/><g id="au"/><g id="av"/><g id="aw"/><g id="ax"/></svg>